# File created by Blade
# Date/Time:  Wed Apr 08 17:31:39 2015
# Frame Rate: 120.000 fps
#------------------------------------------------------
:FULLY-SPECIFIED
:DEGREES
1140
root 1.898561 36.367566 0.352762 -502.736253 -83.809900 530.267546
Spine -27.904644 -0.543488 -2.945564
Head 9.441559 15.510442 1.787368
LeftShoulder -5.627961 10.485465 30.876204
LeftArm 13.765752 -36.600580 -34.631934
LeftForeArm 20.057185 -0.000000 1.168959
LeftHand -9.453921 0.000000 -13.797554
LeftHandThumb1 -26.253704 0.000000 33.147579
RightShoulder -21.528413 -39.169145 -17.783038
RightArm 49.879184 46.813776 48.279391
RightForeArm -1.046304 -0.000000 -1.899780
RightHand -0.941797 -0.000000 15.766567
RightHandThumb1 -24.326973 -0.000000 -32.862282
LeftUpLeg -28.468042 14.402667 -1.055717
LeftLeg 11.467711 -0.000000 -0.000000
LeftFoot -9.083549 10.034662 -14.988671
LeftToeBase 7.335321 -0.000000 -0.000000
RightUpLeg -28.778639 -9.170158 -5.479652
RightLeg 9.935570 -0.000000 -0.000000
RightFoot -10.101600 -7.742565 22.158387
RightToeBase 13.886146 -0.000000 -0.000000
1141
root 1.900721 36.367539 0.350840 -502.756093 -83.811570 530.284989
Spine -27.904835 -0.536167 -2.948018
Head 9.470266 15.488907 1.843507
LeftShoulder -5.627148 10.511693 30.858380
LeftArm 13.763569 -36.612339 -34.606697
LeftForeArm 19.956816 -0.000000 1.152940
LeftHand -9.676429 -0.000000 -13.749312
LeftHandThumb1 -26.253704 0.000000 33.147579
RightShoulder -21.530327 -39.171373 -17.765435
RightArm 49.857328 46.829134 48.261439
RightForeArm -1.026494 0.000000 -1.885186
RightHand -0.950064 0.000000 15.765876
RightHandThumb1 -24.326973 -0.000000 -32.862282
LeftUpLeg -28.468198 14.399648 -1.046067
LeftLeg 11.468664 -0.000000 -0.000000
LeftFoot -9.087354 10.033121 -14.999104
LeftToeBase 7.328746 -0.000000 -0.000000
RightUpLeg -28.782169 -9.156852 -5.478807
RightLeg 9.942749 -0.000000 -0.000000
RightFoot -10.108157 -7.759858 22.148946
RightToeBase 13.894760 -0.000000 -0.000000
1142
root 1.903003 36.367481 0.348857 -502.768370 -83.819815 530.297751
Spine -27.908513 -0.526818 -2.939557
Head 9.501799 15.492256 1.880855
LeftShoulder -5.633157 10.515325 30.838877
LeftArm 13.761755 -36.614238 -34.583856
LeftForeArm 19.961238 -0.000000 1.100768
LeftHand -9.546877 -0.000000 -13.792626
LeftHandThumb1 -26.253704 0.000000 33.147579
RightShoulder -21.554046 -39.177819 -17.761457
RightArm 49.865643 46.819987 48.267120
RightForeArm -1.016888 0.000000 -1.876701
RightHand -0.985610 -0.000000 15.765558
RightHandThumb1 -24.326973 -0.000000 -32.862282
LeftUpLeg -28.472412 14.398804 -1.039977
LeftLeg 11.466717 -0.000000 -0.000000
LeftFoot -9.080346 10.030280 -14.988240
LeftToeBase 7.329973 -0.000000 -0.000000
RightUpLeg -28.780791 -9.145497 -5.477110
RightLeg 9.938422 -0.000000 -0.000000
RightFoot -10.114195 -7.766618 22.174354
RightToeBase 13.913685 -0.000000 -0.000000
1143
root 1.905224 36.367591 0.347280 -502.815236 -83.818038 530.345624
Spine -27.914165 -0.521001 -2.930152
Head 9.533367 15.489154 1.918321
LeftShoulder -5.637813 10.553591 30.832320
LeftArm 13.748674 -36.630039 -34.586952
LeftForeArm 19.968570 -0.000000 1.088813
LeftHand -9.512660 0.000000 -13.790795
LeftHandThumb1 -26.253704 0.000000 33.147579
RightShoulder -21.552717 -39.180146 -17.762095
RightArm 49.826654 46.787382 48.201420
RightForeArm -0.964327 -0.000000 -1.888401
RightHand -0.984611 -0.000000 15.811941
RightHandThumb1 -24.326973 -0.000000 -32.862282
LeftUpLeg -28.476442 14.403325 -1.033555
LeftLeg 11.467231 -0.000000 -0.000000
LeftFoot -9.070750 10.033734 -14.983003
LeftToeBase 7.318110 -0.000000 -0.000000
RightUpLeg -28.785254 -9.132176 -5.475596
RightLeg 9.938768 -0.000000 -0.000000
RightFoot -10.111997 -7.773600 22.163097
RightToeBase 13.920162 -0.000000 -0.000000
1144
root 1.907418 36.367949 0.345603 -502.833757 -83.822254 530.361470
Spine -27.920647 -0.517810 -2.918196
Head 9.588287 15.490953 1.961489
LeftShoulder -5.630678 10.585917 30.832305
LeftArm 13.735453 -36.654657 -34.600037
LeftForeArm 19.974931 0.000000 1.059887
LeftHand -9.466642 -0.000000 -13.822203
LeftHandThumb1 -26.253704 0.000000 33.147579
RightShoulder -21.549008 -39.209565 -17.773216
RightArm 49.824554 46.771666 48.190156
RightForeArm -0.925119 -0.000000 -1.895673
RightHand -1.011042 -0.000000 15.826626
RightHandThumb1 -24.326973 -0.000000 -32.862282
LeftUpLeg -28.472297 14.401265 -1.026335
LeftLeg 11.457847 -0.000000 -0.000000
LeftFoot -9.064495 10.028937 -14.983494
LeftToeBase 7.328341 -0.000000 -0.000000
RightUpLeg -28.784734 -9.147337 -5.463881
RightLeg 9.936646 -0.000000 -0.000000
RightFoot -10.092987 -7.755504 22.138294
RightToeBase 13.860819 -0.000000 -0.000000
1145
root 1.909905 36.368441 0.343248 -502.861565 -83.842303 530.388135
Spine -27.922668 -0.523362 -2.899858
Head 9.629112 15.467024 2.001942
LeftShoulder -5.639647 10.600649 30.816982
LeftArm 13.757843 -36.678472 -34.603429
LeftForeArm 19.959841 0.000000 0.978452
LeftHand -9.570168 -0.000000 -13.790129
LeftHandThumb1 -26.253704 0.000000 33.147579
RightShoulder -21.562230 -39.227057 -17.771569
RightArm 49.841313 46.760715 48.186634
RightForeArm -0.900244 0.000000 -1.931355
RightHand -1.013897 -0.000000 15.866264
RightHandThumb1 -24.326973 -0.000000 -32.862282
LeftUpLeg -28.474723 14.391076 -1.009798
LeftLeg 11.452887 -0.000000 -0.000000
LeftFoot -9.063110 10.028921 -14.999272
LeftToeBase 7.351324 -0.000000 -0.000000
RightUpLeg -28.776357 -9.154405 -5.447338
RightLeg 9.922445 -0.000000 -0.000000
RightFoot -10.087492 -7.760614 22.139770
RightToeBase 13.861117 -0.000000 -0.000000
1146
root 1.912855 36.368152 0.341560 -502.881126 -83.842975 530.405890
Spine -27.921888 -0.524238 -2.888651
Head 9.662292 15.452073 2.033819
LeftShoulder -5.648127 10.603114 30.817206
LeftArm 13.738430 -36.710403 -34.607957
LeftForeArm 19.985515 -0.000000 0.924318
LeftHand -9.523633 -0.000000 -13.840434
LeftHandThumb1 -26.253704 0.000000 33.147579
RightShoulder -21.547925 -39.231050 -17.790806
RightArm 49.835834 46.749703 48.176569
RightForeArm -0.883193 -0.000000 -1.964911
RightHand -1.039475 0.000000 15.895471
RightHandThumb1 -24.326973 -0.000000 -32.862282
LeftUpLeg -28.477364 14.388763 -1.003232
LeftLeg 11.454368 -0.000000 -0.000000
LeftFoot -9.058392 10.028300 -15.000258
LeftToeBase 7.340408 -0.000000 -0.000000
RightUpLeg -28.776414 -9.147470 -5.443801
RightLeg 9.918083 -0.000000 -0.000000
RightFoot -10.101067 -7.769857 22.151740
RightToeBase 13.893461 -0.000000 -0.000000
1147
root 1.916187 36.368330 0.339131 -502.875959 -83.866163 530.395710
Spine -27.914976 -0.532887 -2.876800
Head 9.680868 15.413742 2.072082
LeftShoulder -5.653707 10.606353 30.808522
LeftArm 13.740421 -36.741944 -34.604329
LeftForeArm 19.973563 0.000000 0.866796
LeftHand -9.581468 -0.000000 -13.872693
LeftHandThumb1 -26.253704 0.000000 33.147579
RightShoulder -21.553846 -39.253629 -17.788919
RightArm 49.879942 46.787546 48.241313
RightForeArm -0.906986 -0.000000 -1.979241
RightHand -1.041012 -0.000000 15.904761
RightHandThumb1 -24.326973 -0.000000 -32.862282
LeftUpLeg -28.482463 14.364815 -0.985405
LeftLeg 11.459523 -0.000000 -0.000000
LeftFoot -9.061006 10.043136 -15.006325
LeftToeBase 7.345924 -0.000000 -0.000000
RightUpLeg -28.772335 -9.169511 -5.421905
RightLeg 9.916009 -0.000000 -0.000000
RightFoot -10.095205 -7.775080 22.134076
RightToeBase 13.881182 -0.000000 -0.000000
1148
root 1.919832 36.368324 0.337264 -502.867515 -83.868613 530.379984
Spine -27.899100 -0.537960 -2.869725
Head 9.694987 15.379954 2.095867
LeftShoulder -5.662116 10.586285 30.809365
LeftArm 13.690424 -36.760348 -34.594651
LeftForeArm 20.017238 -0.000000 0.841357
LeftHand -9.539293 -0.000000 -13.888440
LeftHandThumb1 -26.253704 0.000000 33.147579
RightShoulder -21.545296 -39.246903 -17.792585
RightArm 49.893279 46.804231 48.257785
RightForeArm -0.882539 -0.000000 -2.005510
RightHand -1.091807 -0.000000 15.872281
RightHandThumb1 -24.326973 -0.000000 -32.862282
LeftUpLeg -28.482840 14.361331 -0.980369
LeftLeg 11.462268 -0.000000 -0.000000
LeftFoot -9.052395 10.046009 -14.990377
LeftToeBase 7.325081 -0.000000 -0.000000
RightUpLeg -28.770079 -9.154138 -5.424752
RightLeg 9.917846 -0.000000 -0.000000
RightFoot -10.100459 -7.798038 22.116132
RightToeBase 13.870658 -0.000000 -0.000000
1149
root 1.924121 36.368052 0.335285 -502.834566 -83.877894 530.340259
Spine -27.885770 -0.535235 -2.871749
Head 9.696035 15.314020 2.115000
LeftShoulder -5.669825 10.593920 30.807929
LeftArm 13.700087 -36.819221 -34.625241
LeftForeArm 20.024805 -0.000000 0.838079
LeftHand -9.608792 -0.000000 -13.903340
LeftHandThumb1 -26.253704 0.000000 33.147579
RightShoulder -21.543866 -39.237551 -17.786760
RightArm 49.894068 46.841066 48.291903
RightForeArm -0.891350 -0.000000 -1.995177
RightHand -1.102046 -0.000000 15.835006
RightHandThumb1 -24.326973 -0.000000 -32.862282
LeftUpLeg -28.487577 14.350977 -0.972523
LeftLeg 11.468117 -0.000000 -0.000000
LeftFoot -9.041324 10.044613 -14.993829
LeftToeBase 7.353508 -0.000000 -0.000000
RightUpLeg -28.770135 -9.146619 -5.425265
RightLeg 9.921557 -0.000000 -0.000000
RightFoot -10.108519 -7.816624 22.104204
RightToeBase 13.884781 -0.000000 -0.000000
1150
root 1.929128 36.367546 0.332676 -502.795287 -83.886948 530.294980
Spine -27.866811 -0.531650 -2.876663
Head 9.680859 15.268544 2.128942
LeftShoulder -5.673725 10.592837 30.801577
LeftArm 13.686548 -36.864994 -34.620926
LeftForeArm 20.048563 -0.000000 0.818337
LeftHand -9.546480 -0.000000 -14.053910
LeftHandThumb1 -26.253704 0.000000 33.147579
RightShoulder -21.546828 -39.227078 -17.775304
RightArm 49.880918 46.874290 48.310537
RightForeArm -0.873215 -0.000000 -1.985311
RightHand -1.096584 -0.000000 15.779034
RightHandThumb1 -24.326973 -0.000000 -32.862282
LeftUpLeg -28.499295 14.356659 -0.972481
LeftLeg 11.481423 -0.000000 -0.000000
LeftFoot -9.037873 10.025381 -15.004936
LeftToeBase 7.327676 -0.000000 -0.000000
RightUpLeg -28.777589 -9.143528 -5.424822
RightLeg 9.938508 -0.000000 -0.000000
RightFoot -10.112458 -7.819657 22.091704
RightToeBase 13.838034 -0.000000 -0.000000
1151
root 1.934484 36.366746 0.330486 -502.756643 -83.893247 530.251269
Spine -27.843306 -0.524281 -2.881508
Head 9.652621 15.211896 2.137933
LeftShoulder -5.680952 10.600882 30.793607
LeftArm 13.683614 -36.934519 -34.635958
LeftForeArm 20.033694 -0.000000 0.788129
LeftHand -9.462608 -0.000000 -14.031624
LeftHandThumb1 -26.253704 0.000000 33.147579
RightShoulder -21.557965 -39.193742 -17.764756
RightArm 49.856299 46.888894 48.311674
RightForeArm -0.850968 0.000000 -1.976749
RightHand -1.086962 -0.000000 15.718914
RightHandThumb1 -24.326973 -0.000000 -32.862282
LeftUpLeg -28.507444 14.349030 -0.966627
LeftLeg 11.491259 -0.000000 -0.000000
LeftFoot -9.041094 10.017107 -15.012024
LeftToeBase 7.345276 -0.000000 -0.000000
RightUpLeg -28.785915 -9.125286 -5.429493
RightLeg 9.953679 -0.000000 -0.000000
RightFoot -10.134189 -7.840657 22.100357
RightToeBase 13.825983 -0.000000 -0.000000
